#!OML:ASF E:\CV Data\Top Level 1\Subject 1\Session 1\player.ASF
:FULLY-SPECIFIED
:DEGREES
733
root 2.50778 16.3558 1.50681 5.78914 -25.5836 -6.81715
lowerback 14.8256 2.23079 0.666923
upperback 1.61045 3.19108 2.23557
thorax -6.69272 1.55442 1.34622
lowerneck -18.1378 -6.71472 -10.6755
upperneck 11.2626 -8.9648 15.3546
head 7.68265 -3.4697 5.74795
rclavicle -2.4699e-014 2.5842e-015
rhumerus -15.2108 -18.7761 -71.1062
rradius 29.6059
rwrist -14.8183
rhand -25.9359 4.08319
rfingers 7.12502
rthumb 0.607675 -25.8957
lclavicle -2.4699e-014 2.5842e-015
lhumerus -36.3167 18.9841 68.6906
lradius 27.5696
lwrist -9.14231
lhand -14.5064 13.6124
lfingers 7.12502
lthumb 11.6408 43.269
rfemur -3.84378 2.07162 25.2723
rtibia 41.5831
rfoot -35.47 -12.0687
rtoes -11.6754
lfemur -38.2951 -0.373738 -2.32522
ltibia 25.2706
lfoot -3.53647 16.3801
ltoes 4.33737
734
root 2.50644 16.3647 1.4003 5.68063 -25.9563 -6.71395
lowerback 14.702 2.12697 0.735144
upperback 1.60635 3.06577 2.28328
thorax -6.62493 1.49263 1.38797
lowerneck -18.1918 -6.58087 -10.5454
upperneck 11.3673 -8.76606 15.0535
head 7.67412 -3.38969 5.6514
rclavicle 2.2736e-014 2.79789e-014
rhumerus -14.8909 -18.6138 -71.745
rradius 30.4955
rwrist -15.8045
rhand -26.3442 4.12025
rfingers 7.12502
rthumb 0.213319 -25.8594
lclavicle 2.2736e-014 2.79789e-014
lhumerus -35.7709 19.0041 69.0681
lradius 27.4361
lwrist -8.99171
lhand -14.6213 13.8021
lfingers 7.12502
lthumb 11.5299 43.465
rfemur -4.11156 2.13868 25.2662
rtibia 41.5248
rfoot -35.5244 -12.0601
rtoes -11.0517
lfemur -37.9878 -0.624926 -2.16487
ltibia 25.0482
lfoot -4.77679 17.2456
ltoes 4.9639
735
root 2.50693 16.3765 1.29629 5.57245 -26.3426 -6.61553
lowerback 14.6017 2.03977 0.804037
upperback 1.58862 2.9633 2.33238
thorax -6.58513 1.44181 1.42482
lowerneck -18.2202 -6.46521 -10.4272
upperneck 11.4872 -8.59943 14.785
head 7.67397 -3.32373 5.56399
rclavicle -3.39487e-014 1.22253e-014
rhumerus -14.6588 -18.4256 -72.3586
rradius 31.3383
rwrist -16.6992
rhand -26.6168 4.09414
rfingers 7.12502
rthumb -0.0499901 -25.8856
lclavicle -3.39487e-014 1.22253e-014
lhumerus -35.2064 18.9302 69.5124
lradius 27.3638
lwrist -8.82149
lhand -14.649 13.9938
lfingers 7.12502
lthumb 11.5032 43.6582
rfemur -4.45895 2.24082 25.244
rtibia 41.6125
rfoot -35.4774 -11.9135
rtoes -10.5662
lfemur -37.6718 -0.787458 -2.06152
ltibia 24.9093
lfoot -5.71839 17.9716
ltoes 5.26385
736
root 2.5095 16.3909 1.19552 5.45882 -26.748 -6.52579
lowerback 14.5253 1.96909 0.879816
upperback 1.56649 2.88423 2.38239
thorax -6.56355 1.40208 1.45298
lowerneck -18.2544 -6.36892 -10.3145
upperneck 11.6368 -8.46631 14.5446
head 7.6917 -3.27088 5.48285
rclavicle 4.5121e-014 2.05866e-014
rhumerus -14.492 -18.1693 -72.9632
rradius 32.1395
rwrist -17.6146
rhand -26.9045 3.97122
rfingers 7.12502
rthumb -0.327809 -26.0083
lclavicle 4.5121e-014 2.05866e-014
lhumerus -34.6252 18.7615 70.0253
lradius 27.3679
lwrist -8.64308
lhand -14.5978 14.1871
lfingers 7.12502
lthumb 11.5527 43.8487
rfemur -4.86248 2.35518 25.206
rtibia 41.8155
rfoot -35.351 -11.6194
rtoes -10.1537
lfemur -37.348 -0.810549 -2.03832
ltibia 24.889
lfoot -6.35673 18.4881
ltoes 5.32986
737
root 2.51371 16.4081 1.0983 5.33787 -27.1657 -6.44095
lowerback 14.4645 1.91383 0.956633
upperback 1.5473 2.8257 2.43164
thorax -6.5479 1.37222 1.47508
lowerneck -18.3032 -6.29524 -10.2091
upperneck 11.8115 -8.37047 14.3392
head 7.72803 -3.23222 5.40993
rclavicle -4.61926e-014 -6.11263e-015
rhumerus -14.3731 -17.8767 -73.5526
rradius 32.8713
rwrist -18.4838
rhand -27.1397 3.79906
rfingers 7.12502
rthumb -0.555008 -26.18
lclavicle -4.61926e-014 -6.11263e-015
lhumerus -34.0223 18.4965 70.6063
lradius 27.445
lwrist -8.46542
lhand -14.5342 14.3292
lfingers 7.12502
lthumb 11.6139 43.9874
rfemur -5.28877 2.45826 25.1519
rtibia 42.0763
rfoot -35.1731 -11.2031
rtoes -9.74515
lfemur -37.0237 -0.64388 -2.12407
ltibia 25.004
lfoot -6.70738 18.7061
ltoes 5.24154
738
root 2.5187 16.4281 1.00484 5.20425 -27.5749 -6.34594
lowerback 14.4075 1.86711 1.01465
upperback 1.53355 2.77531 2.48164
thorax -6.52964 1.34681 1.50684
lowerneck -18.3737 -6.24482 -10.115
upperneck 12.0104 -8.31057 14.1658
head 7.78352 -3.20723 5.34502
rclavicle 1.92076e-014 -3.67752e-015
rhumerus -14.2897 -17.5538 -74.1227
rradius 33.5142
rwrist -19.2797
rhand -27.3081 3.58895
rfingers 7.12502
rthumb -0.717677 -26.3896
lclavicle 1.92076e-014 -3.67752e-015
lhumerus -33.4067 18.1375 71.2549
lradius 27.5909
lwrist -8.27895
lhand -14.5071 14.4097
lfingers 7.12502
lthumb 11.6401 44.0664
rfemur -5.69671 2.53093 25.0771
rtibia 42.3266
rfoot -34.9714 -10.7172
rtoes -9.30984
lfemur -36.7019 -0.280739 -2.3383
ltibia 25.2463
lfoot -6.79841 18.5595
ltoes 5.05132
739
root 2.52317 16.4512 0.91479 5.0528 -27.9458 -6.21928
lowerback 14.3405 1.82348 1.02606
upperback 1.52452 2.72125 2.53183
thorax -6.50297 1.32093 1.56608
lowerneck -18.4572 -6.22167 -10.0415
upperneck 12.2189 -8.29028 14.0326
head 7.85299 -3.19803 5.29182
rclavicle -2.37548e-014 1.31198e-014
rhumerus -14.2433 -17.2022 -74.6654
rradius 34.0702
rwrist -20.0307
rhand -27.4133 3.33074
rfingers 7.12502
rthumb -0.819259 -26.6474
lclavicle -2.37548e-014 1.31198e-014
lhumerus -32.7889 17.6731 71.9718
lradius 27.8039
lwrist -8.06559
lhand -14.543 14.4258
lfingers 7.12502
lthumb 11.6055 44.0845
rfemur -6.05275 2.56108 24.9751
rtibia 42.5087
rfoot -34.7577 -10.2326
rtoes -8.8555
lfemur -36.385 0.24864 -2.68628
ltibia 25.5841
lfoot -6.67308 18.0153
ltoes 4.80491
740
root 2.52593 16.4776 0.827768 4.88193 -28.2548 -6.04909
lowerback 14.2544 1.77741 0.972274
upperback 1.52033 2.65321 2.58149
thorax -6.46303 1.29008 1.66476
lowerneck -18.5496 -6.23015 -9.99052
upperneck 12.4252 -8.31473 13.9418
head 7.93266 -3.20724 5.25057
rclavicle -1.52319e-014 -4.17448e-015
rhumerus -14.2297 -16.8419 -75.1819
rradius 34.5395
rwrist -20.7537
rhand -27.4175 3.03593
rfingers 7.12502
rthumb -0.823311 -26.9422
lclavicle -1.52319e-014 -4.17448e-015
lhumerus -32.164 17.0998 72.7525
lradius 28.0666
lwrist -7.80959
lhand -14.6759 14.3763
lfingers 7.12502
lthumb 11.4773 44.0421
rfemur -6.33595 2.55809 24.8463
rtibia 42.589
rfoot -34.5339 -9.78682
rtoes -8.37878
lfemur -36.0678 0.859997 -3.13756
ltibia 25.9796
lfoot -6.42516 17.1247
ltoes 4.62374
741
root 2.52636 16.5069 0.74305 4.69435 -28.4734 -5.83506
lowerback 14.1482 1.72095 0.848787
upperback 1.51515 2.56064 2.63416
thorax -6.41531 1.24925 1.81112
lowerneck -18.6155 -6.27186 -9.97859
upperneck 12.61 -8.38431 13.9025
head 8.01119 -3.23677 5.22706
rclavicle 2.49972e-014 -6.16232e-015
rhumerus -14.2546 -16.4793 -75.6691
rradius 34.9287
rwrist -21.4782
rhand -27.3233 2.71839
rfingers 7.12502
rthumb -0.732388 -27.2601
lclavicle 2.49972e-014 -6.16232e-015
lhumerus -31.5354 16.4188 73.5891
lradius 28.3563
lwrist -7.50571
lhand -14.8852 14.2979
lfingers 7.12502
lthumb 11.2755 43.9748
rfemur -6.54786 2.53115 24.702
rtibia 42.5609
rfoot -34.2932 -9.40714
rtoes -7.88621
lfemur -35.7545 1.47201 -3.65589
ltibia 26.4057
lfoot -6.08934 15.947
ltoes 4.3381
742
root 2.52453 16.5384 0.660429 4.49573 -28.598 -5.59492
lowerback 14.0281 1.65205 0.674994
upperback 1.50622 2.4444 2.69162
thorax -6.36479 1.19827 1.99565
lowerneck -18.6414 -6.35247 -10.0039
upperneck 12.7607 -8.50667 13.9116
head 8.08283 -3.29108 5.21878
rclavicle 3.40419e-014 -2.78299e-015
rhumerus -14.3313 -16.1191 -76.1258
rradius 35.2549
rwrist -22.2246
rhand -27.1397 2.40139
rfingers 7.12502
rthumb -0.555008 -27.5776
lclavicle 3.40419e-014 -2.78299e-015
lhumerus -30.903 15.6328 74.4712
lradius 28.6532
lwrist -7.15829
lhand -15.1555 14.2032
lfingers 7.12502
lthumb 11.0148 43.8942
rfemur -6.69697 2.49533 24.5637
rtibia 42.4382
rfoot -34.0247 -9.11134
rtoes -7.39296
lfemur -35.4446 2.01166 -4.19031
ltibia 26.8566
lfoot -5.79383 14.6006
ltoes 3.99781
743
root 2.52109 16.5713 0.580001 4.29605 -28.6392 -5.3543
lowerback 13.8993 1.57276 0.481291
upperback 1.49249 2.3123 2.75589
thorax -6.31406 1.14008 2.2016
lowerneck -18.6143 -6.47715 -10.0728
upperneck 12.8701 -8.68883 13.9747
head 8.1446 -3.37396 5.22763
rclavicle 3.89618e-014 -9.34288e-015
rhumerus -14.4622 -15.7744 -76.5566
rradius 35.5253
rwrist -22.9803
rhand -26.8874 2.12616
rfingers 7.12502
rthumb -0.311377 -27.8534
lclavicle 3.89618e-014 -9.34288e-015
lhumerus -30.2588 14.7412 75.391
lradius 28.9395
lwrist -6.76808
lhand -15.4798 14.1133
lfingers 7.12502
lthumb 10.702 43.8207
rfemur -6.79406 2.46454 24.4531
rtibia 42.2422
rfoot -33.7266 -8.89502
rtoes -6.88366
lfemur -35.1411 2.46863 -4.71145
ltibia 27.3478
lfoot -5.63151 13.1753
ltoes 3.52835
744
root 2.51715 16.6048 0.502053 4.10577 -28.6164 -5.13935
lowerback 13.7651 1.48391 0.304218
upperback 1.47541 2.17102 2.82833
thorax -6.26199 1.07697 2.40829
lowerneck -18.5358 -6.64825 -10.1889
upperneck 12.9428 -8.9332 14.0885
head 8.19894 -3.48688 5.25271
rclavicle 3.8266e-014 -2.68359e-014
rhumerus -14.6435 -15.4444 -76.9703
rradius 35.7435
rwrist -23.6954
rhand -26.6071 1.91049
rfingers 7.12502
rthumb -0.0406192 -28.0692
lclavicle 3.8266e-014 -2.68359e-014
lhumerus -29.6061 13.7588 76.3357
lradius 29.2105
lwrist -6.34455
lhand -15.8209 14.0365
lfingers 7.12502
lthumb 10.373 43.7606
rfemur -6.84964 2.44843 24.3876
rtibia 41.9924
rfoot -33.3983 -8.7459
rtoes -6.35442
lfemur -34.8517 2.84496 -5.1924
ltibia 27.9036
lfoot -5.65278 11.764
ltoes 2.9623
745
root 2.51358 16.6387 0.427228 3.93163 -28.5578 -4.97068
lowerback 13.6276 1.39071 0.175125
upperback 1.45488 2.03195 2.90741
thorax -6.20912 1.01364 2.59406
lowerneck -18.3969 -6.86667 -10.3516
upperneck 12.9697 -9.24127 14.2525
head 8.24197 -3.63117 5.29343
rclavicle -6.21699e-014 7.15625e-015
rhumerus -14.8761 -15.1277 -77.3743
rradius 35.91
rwrist -24.3059
rhand -26.335 1.75215
rfingers 7.12502
rthumb 0.222179 -28.2275
lclavicle -6.21699e-014 7.15625e-015
lhumerus -28.9489 12.6863 77.294
lradius 29.4642
lwrist -5.88541
lhand -16.1726 13.9548
lfingers 7.12502
lthumb 10.0336 43.6957
rfemur -6.86633 2.45344 24.3754
rtibia 41.7006
rfoot -33.0463 -8.63827
rtoes -5.79684
lfemur -34.5768 3.16301 -5.61763
ltibia 28.5439
lfoot -5.85055 10.4359
ltoes 2.34104
746
root 2.51114 16.6731 0.355611 3.7773 -28.4802 -4.84622
lowerback 13.486 1.29756 0.105045
upperback 1.43166 1.90173 2.98492
thorax -6.15413 0.952963 2.74261
lowerneck -18.2213 -7.13145 -10.5526
upperneck 12.9738 -9.61374 14.4594
head 8.28548 -3.80608 5.34568
rclavicle 1.2424e-015 -2.70347e-014
rhumerus -15.1522 -14.8212 -77.7804
rradius 36.0236
rwrist -24.7611
rhand -26.1176 1.63118
rfingers 7.12502
rthumb 0.432208 -28.3481
lclavicle 1.2424e-015 -2.70347e-014
lhumerus -28.2842 11.5216 78.2554
lradius 29.7062
lwrist -5.38468
lhand -16.5284 13.8699
lfingers 7.12502
lthumb 9.69034 43.627
rfemur -6.85352 2.47156 24.4033
rtibia 41.3731
rfoot -32.6783 -8.54644
rtoes -5.21176
lfemur -34.3227 3.44261 -5.99365
ltibia 29.2751
lfoot -6.16877 9.23409
ltoes 1.67246
